<?xml version="1.0" encoding="UTF-8"?>
<svg width="512px" height="512px" viewBox="0 0 512 512" version="1.1" xmlns="http://www.w3.org/2000/svg" xmlns:xlink="http://www.w3.org/1999/xlink">
    <title>Icon</title>
    <defs>
        <path d="M146.141456,-7.25467311e-15 L365.858544,7.25467311e-15 C416.675112,-4.215174e-15 435.102427,5.29105984 453.680205,15.2265641 C472.257983,25.1620684 486.837932,39.7420171 496.773436,58.3197949 C506.70894,76.8975727 512,95.3248882 512,146.141456 L512,365.858544 C512,416.675112 506.70894,435.102427 496.773436,453.680205 C486.837932,472.257983 472.257983,486.837932 453.680205,496.773436 C435.102427,506.70894 416.675112,512 365.858544,512 L146.141456,512 C95.3248882,512 76.8975727,506.70894 58.3197949,496.773436 C39.7420171,486.837932 25.1620684,472.257983 15.2265641,453.680205 C5.29105984,435.102427 0,416.675112 0,365.858544 L7.25467311e-15,146.141456 C-4.215174e-15,95.3248882 5.29105984,76.8975727 15.2265641,58.3197949 C25.1620684,39.7420171 39.7420171,25.1620684 58.3197949,15.2265641 C76.8975727,5.29105984 95.3248882,4.215174e-15 146.141456,-7.25467311e-15 Z" id="path-1"></path>
    </defs>
    <g id="Icon" stroke="none" stroke-width="1" fill="none" fill-rule="evenodd">
        <g id="Group">
            <mask id="mask-2" fill="white">
                <use xlink:href="#path-1"></use>
            </mask>
            <g id="Mask"></g>
            <rect id="Background" fill="#FFFFFF" mask="url(#mask-2)" x="0" y="0" width="512" height="512"></rect>
            <g id="Group-2" mask="url(#mask-2)">
                <g transform="translate(7.753, 7.753)">
                    <g id="segments">
                        <rect id="Rectangle" fill="#000000" fill-rule="nonzero" opacity="0" x="58.2469633" y="58.2469633" width="380" height="380"></rect>
                        <path d="M90.1449337,248.246772 C90.1449337,231.308683 92.7635775,214.8865 97.6824769,199.73414 L68.234685,187.474333 C61.8931488,206.778762 58.2469633,227.156041 58.2469633,248.246772 C58.2469633,269.337503 61.8931488,289.71421 68.4321468,309.018257 L97.6824769,296.799105 C92.8038291,281.646363 90.1449337,265.184289 90.1449337,248.246772 Z M175.686664,107.084065 L163.867952,78.4917824 C126.897897,96.9623239 96.7048015,127.17123 78.2436199,163.962676 L107.058813,176.182783 C122.199332,146.470506 146.187003,122.470235 175.686664,107.084065 Z M247.950895,89.8064277 C264.880798,89.8064277 281.294298,92.6239712 296.675755,97.5051429 L308.692101,68.4374733 C289.594524,61.8949206 269.228354,58.2469633 247.950895,58.2469633 C226.871069,58.2469633 206.307265,61.8949206 187.209879,68.4374733 L199.463347,97.5051429 C214.607872,92.5836987 231.021754,89.8064277 247.950895,89.8064277 Z M389.040801,175.984856 L418.052482,163.962676 C399.395575,127.130767 369.161084,96.9220515 332.190647,78.2535833 L320.176209,107.084065 C349.714405,122.272881 374.058045,146.232689 389.040801,175.984856 Z M406.507329,248.246772 C406.507329,265.184289 403.888113,281.646363 399.00832,296.997604 L427.865482,309.018257 C434.601426,289.912709 438.246963,269.337503 438.246963,248.246772 C438.246963,227.156041 434.601426,206.621681 427.865482,187.514606 L398.851892,199.536786 C403.928173,214.8865 406.507329,231.308683 406.507329,248.246772 Z M320.176209,389.408525 L332.190647,418.238626 C369.161084,399.572066 399.592064,369.362015 418.012422,332.570951 L389.237289,320.548389 C374.254534,350.260284 349.912802,374.221428 320.176209,389.408525 Z M248.148337,406.687499 C231.021754,406.687499 214.607872,403.910419 199.463347,398.98802 L187.407322,428.056701 C206.504517,434.597632 227.068893,438.246963 248.148337,438.246963 C269.424843,438.246963 289.750952,434.637713 308.850436,428.253292 L296.595633,399.226601 C281.254238,403.910419 265.037226,406.687499 248.148337,406.687499 Z M107.256065,320.548389 L78.2838715,332.570951 C96.9423051,369.362015 126.937958,399.572066 163.908203,418.042035 L175.726915,389.211935 C146.187003,374.022928 122.239584,350.063693 107.256065,320.548389 Z" id="Shape" fill="#3F8FF7" fill-rule="nonzero" transform="translate(248.247, 248.247) rotate(22.5) translate(-248.247, -248.247)"></path>
                    </g>
                    <g id="clock" transform="translate(118.247, 118.247)">
                        <rect id="Rectangle" fill="#000000" fill-rule="nonzero" opacity="0" x="0" y="0" width="260" height="260"></rect>
                        <path d="M63.2770172,143.71081 C58.2179049,143.71081 54.512588,139.841381 54.512588,134.914161 C54.512588,129.935488 58.2179049,126.037721 63.2770172,126.037721 L121.060538,126.037721 L121.060538,49.0145459 C121.060538,43.9802405 124.956028,40.137975 129.797427,40.137975 C134.828737,40.137975 138.72488,43.9802405 138.72488,49.0145459 L138.72488,134.914161 C138.72488,139.841381 134.828737,143.71081 129.797427,143.71081 L63.2770172,143.71081 Z M129.932519,260 C201.674021,260 260,201.642541 260,129.999869 C260,58.3569369 201.674021,0 129.932519,0 C58.3266314,0 0,58.3569369 0,129.999869 C0,201.642541 58.3266314,260 129.932519,260 Z" id="Shape" fill="#3F8FF7" fill-rule="nonzero"></path>
                    </g>
                </g>
            </g>
        </g>
    </g>
</svg>